<svg width="24" height="24" viewBox="0 0 24 24" fill="none" xmlns="http://www.w3.org/2000/svg">
<path d="M7.00106 22.213C6.45106 22.213 5.98023 22.0172 5.58856 21.6255C5.1969 21.2338 5.00106 20.763 5.00106 20.213C5.00106 19.663 5.1969 19.1922 5.58856 18.8005C5.98023 18.4088 6.45106 18.213 7.00106 18.213C7.55106 18.213 8.0219 18.4088 8.41356 18.8005C8.80523 19.1922 9.00106 19.663 9.00106 20.213C9.00106 20.763 8.80523 21.2338 8.41356 21.6255C8.0219 22.0172 7.55106 22.213 7.00106 22.213ZM17.0011 22.213C16.4511 22.213 15.9802 22.0172 15.5886 21.6255C15.1969 21.2338 15.0011 20.763 15.0011 20.213C15.0011 19.663 15.1969 19.1922 15.5886 18.8005C15.9802 18.4088 16.4511 18.213 17.0011 18.213C17.5511 18.213 18.0219 18.4088 18.4136 18.8005C18.8052 19.1922 19.0011 19.663 19.0011 20.213C19.0011 20.763 18.8052 21.2338 18.4136 21.6255C18.0219 22.0172 17.5511 22.213 17.0011 22.213ZM5.32824 3.78904H19.5413C20.0906 3.78904 20.5085 4.03053 20.7951 4.51351C21.0817 4.9965 21.0909 5.48836 20.8228 5.98909L17.5978 11.838C17.3956 12.1996 17.1241 12.4838 16.7833 12.6907C16.4425 12.8976 16.0694 13.001 15.6641 13.001H8.34129L7.36846 14.7891H18.0011C18.3444 14.7891 18.6323 14.9052 18.8646 15.1375C19.0969 15.3698 19.213 15.6577 19.213 16.001C19.213 16.3444 19.0969 16.6323 18.8646 16.8646C18.6323 17.0969 18.3444 17.213 18.0011 17.213H7.00106C6.14743 17.213 5.51011 16.8462 5.08909 16.1125C4.66807 15.3788 4.65612 14.6539 5.05324 13.938L6.36084 11.601L2.87389 4.21301H2.00106C1.65768 4.21301 1.36984 4.09686 1.13754 3.86456C0.905221 3.63226 0.789062 3.34442 0.789062 3.00104C0.789062 2.65766 0.905213 2.36981 1.13751 2.13751C1.36983 1.90521 1.65768 1.78906 2.00106 1.78906H3.54129C3.79056 1.78906 4.02491 1.85504 4.24434 1.98699C4.46376 2.11894 4.62832 2.30587 4.73804 2.54779L5.32824 3.78904Z" fill="#F5F5F7"/>
</svg>
