<svg width="24" height="24" viewBox="0 0 24 24" fill="none" xmlns="http://www.w3.org/2000/svg">
<path d="M5.1698 10.9998C4.4398 10.9998 3.8168 10.7398 3.2978 10.2218C3.04712 9.97947 2.84876 9.68834 2.71495 9.36637C2.58114 9.0444 2.51472 8.69843 2.5198 8.3498V5.1698C2.5198 4.4398 2.7788 3.8168 3.2978 3.2978C3.54014 3.04712 3.83127 2.84876 4.15324 2.71495C4.4752 2.58114 4.82117 2.51472 5.1698 2.5198H8.3498C9.0788 2.5198 9.7028 2.7788 10.2218 3.2978C10.7408 3.8168 10.9998 4.4408 10.9998 5.1698V8.3498C10.9998 9.0788 10.7398 9.7028 10.2218 10.2218C9.97947 10.4725 9.68834 10.6708 9.36637 10.8047C9.0444 10.9385 8.69843 11.0049 8.3498 10.9998H5.1698ZM5.1698 21.4798C4.4398 21.4798 3.8168 21.2198 3.2978 20.7018C3.04712 20.4595 2.84876 20.1683 2.71495 19.8464C2.58114 19.5244 2.51472 19.1784 2.5198 18.8298V15.6498C2.5198 14.9208 2.7788 14.2968 3.2978 13.7778C3.54014 13.5271 3.83127 13.3288 4.15324 13.1949C4.4752 13.0611 4.82117 12.9947 5.1698 12.9998H8.3498C9.0788 12.9998 9.7028 13.2598 10.2218 13.7778C10.7408 14.2978 10.9998 14.9208 10.9998 15.6498V18.8298C10.9998 19.5598 10.7398 20.1828 10.2218 20.7018C9.97947 20.9525 9.68834 21.1509 9.36637 21.2847C9.0444 21.4185 8.69843 21.4849 8.3498 21.4798H5.1698ZM15.6498 10.9998C14.9208 10.9998 14.2968 10.7398 13.7778 10.2218C13.5271 9.97947 13.3288 9.68834 13.1949 9.36637C13.0611 9.0444 12.9947 8.69843 12.9998 8.3498V5.1698C12.9998 4.4398 13.2598 3.8168 13.7778 3.2978C14.0201 3.04712 14.3113 2.84876 14.6332 2.71495C14.9552 2.58114 15.3012 2.51472 15.6498 2.5198H18.8298C19.5598 2.5198 20.1828 2.7788 20.7018 3.2978C21.2208 3.8168 21.4798 4.4408 21.4798 5.1698V8.3498C21.4798 9.0788 21.2198 9.7028 20.7018 10.2218C20.4595 10.4725 20.1683 10.6708 19.8464 10.8047C19.5244 10.9385 19.1784 11.0049 18.8298 10.9998H15.6498ZM15.6498 21.4798C14.9208 21.4798 14.2968 21.2198 13.7778 20.7018C13.5271 20.4595 13.3288 20.1683 13.1949 19.8464C13.0611 19.5244 12.9947 19.1784 12.9998 18.8298V15.6498C12.9998 14.9208 13.2598 14.2968 13.7778 13.7778C14.0201 13.5271 14.3113 13.3288 14.6332 13.1949C14.9552 13.0611 15.3012 12.9947 15.6498 12.9998H18.8298C19.5598 12.9998 20.1828 13.2598 20.7018 13.7778C21.2208 14.2978 21.4798 14.9208 21.4798 15.6498V18.8298C21.4798 19.5598 21.2198 20.1828 20.7018 20.7018C20.4595 20.9525 20.1683 21.1509 19.8464 21.2847C19.5244 21.4185 19.1784 21.4849 18.8298 21.4798H15.6498Z" fill="#F5F5F7"/>
</svg>
