<svg width="24" height="24" viewBox="0 0 24 24" fill="none" xmlns="http://www.w3.org/2000/svg">
<path d="M5.14717 19.8544C4.60178 19.8544 4.13492 19.6631 3.74657 19.2802C3.35823 18.8975 3.16406 18.4373 3.16406 17.8997V4.52924C3.16406 4.41525 3.21375 4.33786 3.31312 4.29704C3.41236 4.25608 3.50352 4.27477 3.58662 4.3531L4.66055 5.40155L5.77305 4.28867C5.87053 4.19258 5.98611 4.14453 6.11977 4.14453C6.25342 4.14453 6.36899 4.19258 6.46648 4.28867L7.59554 5.40155L8.72438 4.28867C8.82201 4.19258 8.93766 4.14453 9.07132 4.14453C9.20483 4.14453 9.32041 4.19258 9.41804 4.28867L10.5251 5.39639L11.6542 4.29382C11.7516 4.1943 11.8672 4.14453 12.0008 4.14453C12.1346 4.14453 12.2501 4.1943 12.3476 4.29382L13.4766 5.39639L14.5837 4.28867C14.6813 4.19258 14.7969 4.14453 14.9305 4.14453C15.0641 4.14453 15.1797 4.19258 15.2773 4.28867L16.4062 5.40155L17.5352 4.28867C17.6328 4.19258 17.7483 4.14453 17.882 4.14453C18.0156 4.14453 18.1312 4.19258 18.2287 4.28867L19.3412 5.40155L20.4151 4.3531C20.4982 4.27477 20.5894 4.25608 20.6886 4.29704C20.788 4.33786 20.8376 4.41525 20.8376 4.52924V17.8997C20.8376 18.4373 20.6435 18.8975 20.2552 19.2802C19.8668 19.6631 19.3999 19.8544 18.8546 19.8544H5.14717ZM5.14717 17.8997H11.0509V12.7445H5.14717V17.8997ZM12.9508 17.8997H18.8546V16.2634H12.9508V17.8997ZM12.9508 14.3858H18.8546V12.7445H12.9508V14.3858ZM5.14717 10.8719H18.8546V8.44849H5.14717V10.8719Z" fill="#F5F5F7"/>
</svg>
