<svg width="24" height="24" viewBox="0 0 24 24" fill="none" xmlns="http://www.w3.org/2000/svg">
<path d="M11.9859 21.7498C11.6677 21.7498 11.3525 21.6917 11.0402 21.5753C10.7279 21.459 10.4471 21.281 10.1978 21.041L8.44453 19.4379C6.6967 17.8495 5.10557 16.2429 3.67116 14.6182C2.23674 12.9936 1.51953 11.1711 1.51953 9.15085C1.51953 7.44286 2.08692 6.01677 3.22171 4.87257C4.35649 3.72835 5.77787 3.15625 7.48586 3.15625C8.35034 3.15625 9.16954 3.32255 9.94346 3.65517C10.7174 3.98777 11.3982 4.46023 11.9859 5.07254C12.5735 4.46023 13.2543 3.98777 14.0282 3.65517C14.8021 3.32255 15.6214 3.15625 16.4859 3.15625C18.1938 3.15625 19.6223 3.72835 20.7712 4.87257C21.9201 6.01677 22.4946 7.44286 22.4946 9.15085C22.4946 11.1711 21.7745 12.9977 20.3342 14.6307C18.894 16.2638 17.2833 17.8792 15.5022 19.477L13.7881 21.0552C13.5388 21.2951 13.2556 21.4707 12.9386 21.5823C12.6215 21.694 12.304 21.7498 11.9859 21.7498Z" fill="#F5F5F7"/>
</svg>
